<svg width="102" height="91" viewBox="0 0 102 91" fill="currentColor" xmlns="http://www.w3.org/2000/svg">
<path d="M98.7891 18.586C97.2183 14.949 94.9534 11.6531 92.1211 8.8829C89.2867 6.10445 85.9449 3.89646 82.2773 2.37899C78.4743 0.79922 74.3954 -0.00939593 70.2773 8.23696e-05C64.5 8.23696e-05 58.8633 1.58211 53.9648 4.5704C52.793 5.28524 51.6797 6.0704 50.625 6.92586C49.5703 6.0704 48.457 5.28524 47.2852 4.5704C42.3867 1.58211 36.75 8.23696e-05 30.9727 8.23696e-05C26.8125 8.23696e-05 22.7812 0.796958 18.9727 2.37899C15.293 3.90243 11.9766 6.09383 9.12891 8.8829C6.29293 11.65 4.02748 14.9466 2.46094 18.586C0.832031 22.3712 0 26.3907 0 30.5274C0 34.4298 0.796875 38.4962 2.37891 42.6329C3.70313 46.0899 5.60156 49.6759 8.02734 53.297C11.8711 59.0274 17.1562 65.004 23.7187 71.0626C34.5937 81.1056 45.3633 88.0431 45.8203 88.3243L48.5977 90.1056C49.8281 90.8907 51.4102 90.8907 52.6406 90.1056L55.418 88.3243C55.875 88.0313 66.6328 81.1056 77.5195 71.0626C84.082 65.004 89.3672 59.0274 93.2109 53.297C95.6367 49.6759 97.5469 46.0899 98.8594 42.6329C100.441 38.4962 101.238 34.4298 101.238 30.5274C101.25 26.3907 100.418 22.3712 98.7891 18.586V18.586Z"/>
</svg>
