<svg xmlns="http://www.w3.org/2000/svg" width="32" height="32" viewBox="0 0 32 32"><g transform="translate(0 -1020.362)"><circle cx="16" cy="1036.362" r="16" fill="#5dc560" fill-rule="evenodd"/><path fill="#43ab27" style="line-height:normal;text-indent:0;text-align:start;text-decoration-line:none;text-decoration-style:solid;text-decoration-color:#000;text-transform:none;block-progression:tb;isolation:auto;mix-blend-mode:normal" d="M 17.751953 31.884766 A 16 16 0 0 0 18.71875 31.767578 A 16 16 0 0 0 20.279297 31.416016 A 16 16 0 0 0 21.796875 30.912109 A 16 16 0 0 0 23.257812 30.259766 A 16 16 0 0 0 24.644531 29.462891 A 16 16 0 0 0 25.945312 28.533203 A 16 16 0 0 0 27.146484 27.478516 A 16 16 0 0 0 28.238281 26.306641 A 16 16 0 0 0 29.205078 25.035156 A 16 16 0 0 0 30.041016 23.669922 A 16 16 0 0 0 30.736328 22.230469 A 16 16 0 0 0 31.285156 20.728516 A 16 16 0 0 0 31.681641 19.177734 A 16 16 0 0 0 31.884766 17.824219 L 21.095703 7.0351562 C 21.081983 7.0211564 21.067254 7.0080937 21.052734 6.9960938 C 20.927829 6.8918938 20.775208 6.8339844 20.607422 6.8339844 L 20.363281 6.8339844 L 20.308594 6.7792969 A 0.30100728 0.30100728 0 0 0 19.994141 6.4648438 L 18.988281 6.4648438 L 18.962891 6.4394531 A 0.30100728 0.30100728 0 0 0 18.65625 6.1367188 A 0.30100728 0.30100728 0 0 0 18.361328 6.4394531 L 18.359375 6.4394531 A 0.30100728 0.30100728 0 0 0 18.054688 6.1367188 A 0.30100728 0.30100728 0 0 0 17.757812 6.4394531 A 0.30100728 0.30100728 0 0 0 17.453125 6.1367188 A 0.30100728 0.30100728 0 0 0 17.15625 6.4394531 L 17.15625 6.4648438 L 16.392578 6.4648438 A 0.30100728 0.30100728 0 0 0 16.363281 6.4648438 A 0.30108343 0.30108343 0 0 0 16.085938 6.8339844 L 16.070312 6.8339844 L 16.035156 6.7988281 A 0.30100728 0.30100728 0 0 0 15.722656 6.4863281 L 14.888672 6.4863281 L 14.841797 6.4394531 A 0.30100728 0.30100728 0 0 0 14.535156 6.1347656 A 0.30100728 0.30100728 0 0 0 14.240234 6.4394531 L 14.240234 6.4628906 L 14.216797 6.4394531 A 0.30100728 0.30100728 0 0 0 13.912109 6.1347656 A 0.30100728 0.30100728 0 0 0 13.615234 6.4394531 L 13.615234 6.4628906 L 13.591797 6.4394531 A 0.30100728 0.30100728 0 0 0 13.287109 6.1347656 A 0.30100728 0.30100728 0 0 0 12.990234 6.4394531 L 12.990234 6.4863281 L 12.025391 6.4863281 A 0.30100728 0.30100728 0 0 0 11.714844 6.8339844 L 11.347656 6.8339844 C 11.011949 6.8339844 10.722656 7.1232844 10.722656 7.4589844 L 10.722656 11.425781 L 11.494141 12.197266 L 10.722656 12.197266 L 10.722656 12.675781 L 11.494141 13.447266 L 11.324219 13.447266 L 11.019531 13.447266 L 10.970703 13.447266 L 10.722656 13.447266 L 10.722656 13.925781 L 11.496094 14.699219 L 10.722656 14.699219 L 10.722656 23.804688 C 10.704526 24.061287 10.862193 24.275063 10.978516 24.476562 L 11.587891 25.699219 C 11.603291 25.730219 11.622351 25.755344 11.644531 25.777344 L 17.751953 31.884766 z M 14.216797 7.1347656 L 14.240234 7.1582031 A 0.30100728 0.30100728 0 0 0 14.53125 7.4492188 L 14.845703 7.7636719 L 14.845703 8.2949219 L 13.990234 7.4394531 A 0.30100728 0.30100728 0 0 0 14.216797 7.1347656 z " color="#000" font-family="sans-serif" font-weight="400" transform="translate(0 1020.362)" white-space="normal"/><path fill="#fff" style="line-height:normal;text-indent:0;text-align:start;text-decoration-line:none;text-decoration-style:solid;text-decoration-color:#000;text-transform:none;block-progression:tb;isolation:auto;mix-blend-mode:normal" d="m 13.286833,1026.4976 a 0.30100728,0.30100728 0 0 0 -0.296939,0.3045 l 0,0.047 -0.96467,0 a 0.30100728,0.30100728 0 0 0 -0.310502,0.3467 l -0.366274,0 c -0.335706,0 -0.625529,0.2898 -0.625529,0.6255 l 0,3.9672 2.315207,0 0,-3.9672 c 0,-0.1482 -0.0669,-0.2703 -0.150732,-0.3708 l 0.1025,0 0,0.047 a 0.30145965,0.30145965 0 0 0 0.602915,0 l 0,-0.047 0.02263,0 0,0.047 a 0.30100728,0.30100728 0 1 0 0.601417,0 l 0,-0.047 0.02411,0 0,0.047 a 0.30100728,0.30100728 0 1 0 0.60141,0 l 0,-0.047 0.143192,0 c -0.08232,0.106 -0.140177,0.2315 -0.140177,0.3708 l 0,3.9672 2.315209,0 0,-3.9672 c 0,-0.1591 -0.07498,-0.2906 -0.168821,-0.3934 l 0.165806,0 0,0.069 a 0.30100728,0.30100728 0 1 0 0.60141,0.01 0.30100728,0.30100728 0 1 0 0.601411,-0.01 l 0,-0.069 0.0012,0 0,0.069 a 0.30100728,0.30100728 0 1 0 0.601411,0 l 0,-0.069 0.156761,0 c -0.09276,0.1096 -0.156761,0.2445 -0.156761,0.3934 l 0,3.9672 2.315214,0 0,-3.9672 c 0,-0.1929 -0.09972,-0.3585 -0.224587,-0.4627 -0.124905,-0.1042 -0.278417,-0.1628 -0.446203,-0.1628 l -0.307487,0 a 0.30100728,0.30100728 0 0 0 -0.305983,-0.3693 l -1.030991,0 0,-0.024 a 0.30100728,0.30100728 0 0 0 -0.305983,-0.3045 0.30100728,0.30100728 0 0 0 -0.295428,0.3045 l 0,0.024 -0.0018,0 0,-0.024 a 0.30100728,0.30100728 0 0 0 -0.304436,-0.3045 0.30100728,0.30100728 0 0 0 -0.296938,0.3045 0.30100728,0.30100728 0 0 0 -0.304472,-0.3045 0.30100728,0.30100728 0 0 0 -0.296939,0.3045 l 0,0.024 -0.764202,0 a 0.30100728,0.30100728 0 0 0 -0.03015,0 0.30108343,0.30108343 0 0 0 -0.277344,0.3693 l -0.05278,0 a 0.30100728,0.30100728 0 0 0 -0.310502,-0.3467 l -0.880266,0 0,-0.047 a 0.30100728,0.30100728 0 0 0 -0.305977,-0.3045 0.30100728,0.30100728 0 0 0 -0.295434,0.3045 l 0,0.047 -0.02411,0 0,-0.047 a 0.30100728,0.30100728 0 0 0 -0.304473,-0.3045 0.30100728,0.30100728 0 0 0 -0.296938,0.3045 l 0,0.047 -0.02263,0 0,-0.047 a 0.30100728,0.30100728 0 0 0 -0.305977,-0.3045 z m -2.563914,6.0624 0,0.4778 1.469616,0 0.24267,0 0.110034,0 0.492887,0 0,-0.4778 -0.492887,0 -0.110034,0 -0.24267,0 -1.469616,0 z m 4.122454,0 0,0.4778 1.469617,0 0.242676,0 0.110034,0 0.492888,0 0,-0.4778 -0.492888,0 -0.110034,0 -0.242676,0 -1.469617,0 z m 4.117942,0 0,0.4778 1.469611,0 0.242676,0 0.110034,0 0.492887,0 0,-0.4778 -0.492887,0 -0.110034,0 -0.242676,0 -1.469611,0 z m -8.240396,1.2495 0,0.4793 0.248706,0 0.04821,0 0.304471,0 1.713798,0 0,-0.4793 -1.713798,0 -0.304471,0 -0.04821,0 -0.248706,0 z m 4.122454,0 0,0.4793 0.248706,0 0.04821,0 0.304472,0 1.713798,0 0,-0.4793 -1.713798,0 -0.304472,0 -0.04821,0 -0.248706,0 z m 4.117942,0 0,0.4793 0.2487,0 0.04821,0 0.304478,0 1.713798,0 0,-0.4793 -1.713798,0 -0.304478,0 -0.04821,0 -0.2487,0 z m -8.240396,1.2511 0,9.1056 c -0.01813,0.2566 0.138413,0.4707 0.254736,0.6722 l 0.610448,1.2224 c 0.111058,0.2214 0.427053,0.2214 0.53811,0 l 0.610456,-1.2224 c 0,0 0.301457,-0.5516 0.301457,-0.6722 l 0,-9.1056 -2.315207,0 z m 4.122454,0 0,9.1056 c -0.01813,0.2566 0.13842,0.4707 0.254736,0.6722 l 0.610455,1.2224 c 0.111058,0.2214 0.427053,0.2214 0.538105,0 l 0.610455,-1.2224 c 0,0 0.301464,-0.5516 0.301464,-0.6722 l 0,-9.1056 -2.315215,0 z m 4.117942,0 0,9.1056 c -0.01813,0.2566 0.138413,0.4707 0.25473,0.6722 l 0.610455,1.2224 c 0.111058,0.2214 0.427053,0.2214 0.538105,0 l 0.610461,-1.2224 c 0,0 0.301457,-0.5516 0.301457,-0.6722 l 0,-9.1056 -2.315208,0 z" color="#000" font-family="sans-serif" font-weight="400" overflow="visible" white-space="normal"/></g></svg>