<svg width="102" height="92" viewBox="0 0 102 92" fill="none" xmlns="http://www.w3.org/2000/svg">
<path d="M99.1641 19.2345C97.5933 15.5974 95.3284 12.3015 92.4961 9.53133C89.6617 6.75289 86.3199 4.5449 82.6523 3.02743C78.8493 1.44766 74.7704 0.639042 70.6523 0.64852C64.875 0.64852 59.2383 2.23055 54.3398 5.21883C53.168 5.93368 52.0547 6.71883 51 7.5743C49.9453 6.71883 48.832 5.93368 47.6602 5.21883C42.7617 2.23055 37.125 0.64852 31.3477 0.64852C27.1875 0.64852 23.1562 1.4454 19.3477 3.02743C15.668 4.55086 12.3516 6.74227 9.50391 9.53133C6.66793 12.2984 4.40248 15.595 2.83594 19.2345C1.20703 23.0196 0.375 27.0391 0.375 31.1759C0.375 35.0782 1.17188 39.1446 2.75391 43.2813C4.07813 46.7384 5.97656 50.3243 8.40234 53.9454C12.2461 59.6759 17.5312 65.6524 24.0937 71.711C34.9687 81.754 45.7383 88.6915 46.1953 88.9727L48.9727 90.754C50.2031 91.5392 51.7852 91.5392 53.0156 90.754L55.793 88.9727C56.25 88.6798 67.0078 81.754 77.8945 71.711C84.457 65.6524 89.7422 59.6759 93.5859 53.9454C96.0117 50.3243 97.9219 46.7384 99.2344 43.2813C100.816 39.1446 101.613 35.0782 101.613 31.1759C101.625 27.0391 100.793 23.0196 99.1641 19.2345V19.2345Z" fill="#F6FEFC"/>
</svg>
