<svg xmlns="http://www.w3.org/2000/svg" data-name="Layer 1" viewBox="0 0 512 512"><circle cx="256" cy="453.23" r="50.3" fill="#e4222e"/><path fill="#fbbf7d" d="M503.53 434.47c-.86 2.23-1.88 4.69-3.09 7.33a123.6 123.6 0 0 1-19.09 29.63 121.89 121.89 0 0 1-36.8 28.74c-2.64 1.36-5.05 2.45-7.15 3.36L429 495.15C377.58 444 307.37 374.64 256 323.55L323.85 256C381.37 313.12 458 389.19 495.61 426.6zM256 188.64l-34.25 34L188.15 256l-36-35.81 1.28-7a52.62 52.62 0 0 0-1.55-25.37A51.93 51.93 0 0 0 139 166.65L59.49 86.86l-21.1-21L8.47 36.09 34.93 8.47l29.8 29.66 21.09 21L165.49 139a50.52 50.52 0 0 0 20.92 12.56 49.91 49.91 0 0 0 25.1 1l6.8-1.48 3 2.94L251 183.66S252.74 185.42 256 188.64z"/><path fill="#eb304a" d="M186.41,151.59l-.08.33a51,51,0,0,1-12.15,22.29l-.37.39a49.46,49.46,0,0,1-21.9,13.28A51.93,51.93,0,0,0,139,166.65L59.49,86.86l-21.1-21L8.47,36.09,34.93,8.47l29.8,29.66,21.09,21L165.49,139A50.52,50.52,0,0,0,186.41,151.59Z"/><polygon fill="#e1e1e3" points="85.82 59.13 59.49 86.86 38.39 65.88 64.73 38.13 85.82 59.13"/><path fill="#fbbf7d" d="M503.53,36.09,473.61,65.88l-21.1,21L373,166.65a51.93,51.93,0,0,0-12.87,21.23,52.62,52.62,0,0,0-1.55,25.37l1.28,7q-35.34,35.19-70.68,70.36l-29.71,29.57C207.8,371.54,135.57,442.86,83,495.15l-8.42,8.38c-2.1-.91-4.51-2-7.15-3.36a121.89,121.89,0,0,1-36.8-28.74A123.6,123.6,0,0,1,11.56,441.8c-1.21-2.64-2.23-5.1-3.09-7.33l7.92-7.87C81.07,362.3,261,183.66,261,183.66l29.71-29.58,3-2.94,6.8,1.48a50.07,50.07,0,0,0,46-13.59l79.67-79.9,21.09-21,29.8-29.66Z"/><path fill="#eb304a" d="M477.07,8.47l-29.8,29.66-21.09,21L346.51,139a50.38,50.38,0,0,1-20.82,12.53l0,.36a51,51,0,0,0,12.15,22.29l.37.39a49.46,49.46,0,0,0,21.9,13.28A51.93,51.93,0,0,1,373,166.65l79.55-79.79,21.1-21,29.92-29.79Z"/><polygon fill="#e1e1e3" points="473.61 65.88 452.51 86.86 426.18 59.13 447.27 38.13 473.61 65.88"/><path d="M256,395.45a57.78,57.78,0,1,0,57.77,57.78A57.84,57.84,0,0,0,256,395.45Zm-42.83,57.78A42.8,42.8,0,0,1,280.36,418L220.8,477.58A42.52,42.52,0,0,1,213.17,453.23ZM256,496.06a42.57,42.57,0,0,1-24.69-7.87L291,428.54a42.8,42.8,0,0,1-35,67.52Zm255-62.18a6.42,6.42,0,0,0-.12-.88.94.94,0,0,0,0-.16,7,7,0,0,0-.68-1.86l-.07-.13a7.18,7.18,0,0,0-1.22-1.62l0-.06C470.11,390.68,371.52,292.81,334.45,256l30.64-30.5a7.49,7.49,0,0,0,2.08-6.65l-1.29-7a45.38,45.38,0,0,1,1.34-21.77,44.62,44.62,0,0,1,11-18.19l79.53-79.77,21.09-21,0,0,29.9-29.76a7.47,7.47,0,0,0,.12-10.46L482.47,3.3a7.45,7.45,0,0,0-5.3-2.3h-.09a7.44,7.44,0,0,0-5.27,2.18L442.06,32.79l-.06.06-21.09,21h0l0,0-79.64,79.87a42.59,42.59,0,0,1-39.18,11.58l-6.8-1.47a7.48,7.48,0,0,0-6.85,2L256,178.12l-32.43-32.28a7.47,7.47,0,0,0-6.85-2l-6.79,1.47a42.55,42.55,0,0,1-39.15-11.56L91.09,53.84,72.68,35.51,70,32.85h0L40.2,3.18a7.47,7.47,0,0,0-10.67.12L3.08,30.92A7.48,7.48,0,0,0,3.2,41.39L33.08,71.12l.05,0,21.09,21,.05,0,79.5,79.73a44.63,44.63,0,0,1,11,18.18,45.37,45.37,0,0,1,1.34,21.77l-1.29,7a7.47,7.47,0,0,0,2.08,6.66L177.55,256C116.14,317,35.77,396.78,3.2,429.17a.5.5,0,0,1-.07.08A7.46,7.46,0,0,0,2,430.82a1.62,1.62,0,0,0-.1.18,7.22,7.22,0,0,0-.67,1.82c0,.06,0,.13,0,.2a7.38,7.38,0,0,0-.12.84S1,434,1,434a7.63,7.63,0,0,0,0,.83s0,.08,0,.12a1.8,1.8,0,0,1,0,.22q0,.42.12.81c0,.06,0,.12,0,.17a6.26,6.26,0,0,0,.29,1,.08.08,0,0,0,0,0,130.29,130.29,0,0,0,70.07,73.21,6.58,6.58,0,0,0,.78.29l.24.07.48.12.44.07.28,0h0l.7,0h.09a7.38,7.38,0,0,0,2.11-.31l.11,0c.18,0,.37-.12.55-.19l.2-.09.43-.2.24-.13c.12-.07.25-.14.36-.22a2.2,2.2,0,0,0,.25-.17l.33-.24.24-.19.31-.28.13-.12c27.31-27.2,61.64-61.21,94.83-94.1,27.91-27.65,56.66-56.13,81.3-80.63,23.86,23.72,51.7,51.31,78.7,78,34.13,33.82,69.42,68.78,97.43,96.69l.16.15.25.22.3.25.25.18.32.22.28.17.32.17.34.16.28.13.46.16.2.06.62.16h0a7.62,7.62,0,0,0,1.43.14h.13q.33,0,.66,0h0l.36-.06.35-.06a6.06,6.06,0,0,0,.61-.16l.1,0a7.67,7.67,0,0,0,.84-.32,130.36,130.36,0,0,0,70-73.19l0-.06a7.49,7.49,0,0,0,.28-.92c0-.07,0-.14,0-.21.05-.25.09-.51.12-.77a1.94,1.94,0,0,1,0-.24s0-.08,0-.12a7.63,7.63,0,0,0,0-.83S511,433.92,511,433.88ZM477,19.14,493.06,36,473.75,55.18l-16-16.89ZM447.12,48.83l16,16.9-10.5,10.45-16-16.9ZM351.81,144.3l74.24-74.45,16,16.89-74.4,74.62a59.69,59.69,0,0,0-11.85,16.93,41.88,41.88,0,0,1-12.57-9.19A42.81,42.81,0,0,1,334.89,156,58.22,58.22,0,0,0,351.81,144.3ZM191.44,160.44a57.72,57.72,0,0,0,21.66-.52l2.82-.62,29.48,29.35-23.62,23.44-37.86-37.94A57.92,57.92,0,0,0,191.44,160.44ZM18.94,36,35.05,19.14,54.29,38.29l-16,16.89Zm29.9,29.76,16-16.9,10.5,10.45-16,16.89Zm95.49,95.65L69.91,86.74,86,69.85l74.26,74.47A58.25,58.25,0,0,0,177.11,156a42.69,42.69,0,0,1-8.38,13.06,41.88,41.88,0,0,1-12.57,9.19A59.31,59.31,0,0,0,144.33,161.38Zm15.91,56.31.57-3.09a60.48,60.48,0,0,0,0-22,56.74,56.74,0,0,0,12.79-7.68l37.62,37.7-23,22.86ZM68.31,492.18A114.84,114.84,0,0,1,19.66,441.4l54.45-2.65Zm10.92-68.63-51.71,2.51c39.18-38.94,111.13-110.38,165.85-164.7a.46.46,0,0,1,.07-.07l.05-.06L266.3,189,296,159.38l.08-.08,2.82.62a57.51,57.51,0,0,0,21.66.52,57.92,57.92,0,0,0,7.52,13.71Zm174.93-108.7c-26.4,26.27-58.72,58.29-90,89.26-27.39,27.13-55.53,55-79.89,79.22l5.32-49L338.44,184.92a56.74,56.74,0,0,0,12.79,7.68,60.26,60.26,0,0,0,0,22l.57,3.09Zm91,86.67c-27-26.71-54.77-54.27-78.62-78l22.73-22.62L422.38,434.28l5.32,49.05C402.61,458.39,373.51,429.56,345.21,401.52Zm87.56,22L299.91,290.39l23.95-23.84c33.2,32.95,116,115.12,160.62,159.51Zm42.93,43a115.4,115.4,0,0,1-32,25.64l-5.8-53.43,54.45,2.65A115.61,115.61,0,0,1,475.7,466.54Z"/></svg>